<?xml version="1.0" standalone="no"?>
<!DOCTYPE svg PUBLIC "-//W3C//DTD SVG 20010904//EN"
 "http://www.w3.org/TR/2001/REC-SVG-20010904/DTD/svg10.dtd">
<svg version="1.0" xmlns="http://www.w3.org/2000/svg"
 width="400.000000pt" height="142.000000pt" viewBox="0 0 400.000000 142.000000"
 preserveAspectRatio="xMidYMid meet">

<g transform="translate(0.000000,142.000000) scale(0.100000,-0.100000)"
fill="#000000" stroke="none">
<path d="M628 1370 c18 -20 15 -32 -7 -25 -35 11 -52 -20 -45 -78 9 -67 39
-149 61 -165 16 -11 18 -28 15 -144 -3 -119 -5 -133 -24 -150 -12 -10 -27 -18
-35 -18 -23 0 -16 -80 14 -137 14 -29 30 -53 35 -53 4 0 8 -18 8 -40 0 -42 27
-107 53 -129 48 -39 125 -30 172 19 l30 31 -22 62 c-12 34 -24 97 -27 139 -3
42 -12 93 -21 113 -8 21 -15 52 -15 69 0 17 -7 66 -14 109 -13 73 -26 102 -53
120 -16 10 -53 112 -53 146 0 32 -41 112 -68 132 -14 11 -15 11 -4 -1z"/>
<path d="M460 1337 c0 -9 -7 -17 -15 -17 -8 0 -15 -4 -15 -10 0 -5 -5 -10 -11
-10 -17 0 -49 -40 -49 -62 0 -11 -4 -16 -10 -13 -5 3 -10 -3 -10 -14 0 -22 23
-25 77 -9 29 8 35 17 49 65 15 51 15 57 0 71 -15 15 -16 15 -16 -1z m0 -53 c0
-17 -22 -14 -28 4 -2 7 3 12 12 12 9 0 16 -7 16 -16z"/>
<path d="M346 1073 c-5 -13 -9 -14 -15 -5 -11 19 -51 -29 -62 -75 -17 -73 -11
-132 14 -156 27 -25 41 -67 23 -67 -7 0 -18 6 -25 13 -11 10 -12 9 -6 -1 9
-17 -24 -80 -46 -87 -37 -12 -46 -108 -12 -128 7 -5 11 -12 8 -18 -4 -5 -1 -9
5 -9 6 0 8 -5 5 -10 -4 -6 -11 -7 -17 -4 -6 4 -8 3 -5 -3 11 -17 -16 -71 -37
-77 -16 -4 -17 -7 -6 -20 8 -11 29 -16 60 -16 60 0 93 25 116 88 9 26 23 52
31 58 15 12 36 111 27 125 -3 6 6 19 20 30 31 25 33 52 6 102 -16 30 -19 48
-14 85 4 31 0 64 -11 97 -30 92 -46 113 -59 78z m-14 -388 c5 -43 -8 -47 -14
-5 -4 26 -1 40 8 40 1 0 4 -16 6 -35z m-61 -148 c-15 -15 -21 -5 -14 22 5 21
7 21 16 6 6 -11 5 -21 -2 -28z m59 -12 c0 -8 -2 -15 -4 -15 -2 0 -6 7 -10 15
-3 8 -1 15 4 15 6 0 10 -7 10 -15z"/>
<path d="M509 1086 c-1 -3 -2 -11 -3 -17 0 -5 -12 -19 -26 -29 -25 -19 -25
-20 -7 -50 19 -35 23 -85 7 -95 -5 -3 -9 -21 -9 -38 1 -19 3 -24 6 -12 3 17
13 20 58 22 43 2 55 0 55 -12 0 -8 4 -15 9 -15 12 0 18 82 9 116 -4 14 -2 36
4 49 16 36 -14 79 -49 70 -14 -3 -31 -1 -39 6 -8 6 -15 9 -15 5z"/>
<path d="M526 819 c-9 -44 -8 -79 3 -79 8 0 21 55 21 93 0 29 -17 19 -24 -14z"/>
<path d="M521 514 c0 -11 3 -14 6 -6 3 7 2 16 -1 19 -3 4 -6 -2 -5 -13z"/>
<path d="M1200 346 l0 -156 40 0 40 0 0 65 0 65 55 0 55 0 0 -65 0 -65 40 0
40 0 0 156 0 155 -37 -3 -38 -3 -3 -52 -3 -53 -54 0 -54 0 -3 53 -3 52 -37 3
-38 3 0 -155z"/>
<path d="M1980 346 l0 -156 29 0 29 0 4 75 c4 78 20 111 50 100 21 -8 28 -36
28 -112 l0 -63 30 0 30 0 0 98 c0 83 -3 102 -18 115 -20 19 -87 23 -97 7 -13
-21 -26 4 -23 44 3 40 2 41 -29 44 l-33 3 0 -155z"/>
<path d="M2320 346 l0 -156 40 0 40 0 0 50 0 50 45 0 c55 0 110 21 124 48 20
37 13 98 -13 129 -23 26 -28 28 -130 31 l-106 4 0 -156z m174 78 c19 -18 20
-28 6 -55 -8 -14 -21 -19 -55 -19 l-45 0 0 45 0 45 39 0 c23 0 46 -7 55 -16z"/>
<path d="M3344 486 c-11 -28 4 -48 33 -44 22 2 28 8 28 28 0 20 -6 26 -28 28
-18 2 -29 -2 -33 -12z"/>
<path d="M3940 429 c0 -12 4 -17 11 -13 6 3 15 0 20 -7 6 -10 9 -7 9 11 0 19
-6 26 -20 27 -14 1 -20 -4 -20 -18z"/>
<path d="M1510 323 c0 -119 9 -137 66 -135 21 0 60 1 87 1 l47 1 0 116 0 115
-32 -3 -33 -3 -2 -73 c-1 -90 -7 -104 -35 -100 -21 3 -23 9 -28 88 l-5 85 -32
3 -33 3 0 -98z"/>
<path d="M1776 399 c-45 -35 -29 -97 29 -112 11 -3 32 -8 48 -11 15 -4 27 -13
27 -21 0 -19 -61 -20 -90 -3 -16 10 -23 10 -36 -4 -23 -23 -5 -44 47 -58 71
-19 149 17 149 69 0 39 -13 52 -71 71 -29 10 -55 23 -57 29 -4 13 47 14 68 1
10 -6 20 -4 32 7 24 21 23 28 -7 41 -42 19 -109 15 -139 -9z"/>
<path d="M2604 405 c-3 -8 -4 -53 -3 -101 4 -77 7 -88 29 -106 18 -14 32 -18
55 -13 16 3 51 6 78 5 l47 -1 0 115 0 116 -35 0 -34 0 -3 -87 -3 -88 -30 0
-30 0 -3 88 -3 87 -30 0 c-17 0 -32 -6 -35 -15z"/>
<path d="M2844 405 c-3 -6 -3 -74 -2 -150 l3 -140 33 -3 c32 -3 32 -3 32 41
l0 45 45 -6 c58 -6 91 15 105 68 14 53 4 103 -27 134 -22 23 -32 25 -105 24
-50 -1 -81 -5 -84 -13z m144 -47 c7 -7 12 -31 12 -54 0 -84 -81 -93 -88 -11
-2 20 2 45 8 57 12 22 49 27 68 8z"/>
<path d="M3097 413 c-4 -3 -7 -73 -7 -155 l0 -148 35 0 c35 0 35 0 35 44 l0
45 34 -6 c86 -14 121 29 117 140 -2 62 -85 107 -142 77 -13 -7 -19 -7 -19 0 0
11 -43 14 -53 3z m143 -62 c17 -32 12 -79 -11 -102 -18 -18 -23 -19 -42 -6
-25 17 -36 89 -16 113 17 20 57 17 69 -5z"/>
<path d="M3347 413 c-4 -3 -7 -55 -7 -115 l0 -108 35 0 35 0 0 115 0 115 -28
0 c-16 0 -32 -3 -35 -7z"/>
<path d="M3479 392 c-57 -51 -50 -153 13 -192 54 -32 116 -22 161 27 16 19 16
20 -10 32 -20 9 -28 10 -31 1 -2 -6 -15 -16 -29 -21 -29 -11 -73 11 -73 36 0
12 16 15 80 15 72 0 80 2 80 19 0 31 -17 67 -41 90 -35 33 -110 29 -150 -7z
m105 -28 c26 -25 19 -34 -29 -34 -50 0 -57 11 -23 34 28 20 33 20 52 0z"/>
<path d="M3722 397 c-40 -42 -22 -100 34 -112 13 -3 36 -7 50 -10 14 -3 24
-11 21 -18 -5 -17 -56 -21 -84 -6 -20 11 -26 10 -40 -4 -22 -22 -4 -43 48 -57
104 -28 196 62 122 119 -14 12 -43 24 -65 27 -22 4 -38 12 -38 20 0 16 47 19
70 4 14 -9 50 13 50 30 0 14 -53 30 -99 30 -37 0 -52 -5 -69 -23z"/>
<path d="M720 337 c-14 -17 -28 -41 -32 -54 -5 -20 -4 -22 13 -13 26 15 51 55
47 78 -3 16 -6 15 -28 -11z"/>
<path d="M186 338 c-44 -25 1 -68 70 -68 l36 0 -19 32 c-20 34 -60 51 -87 36z"/>
<path d="M740 210 c-13 -25 -13 -53 2 -68 18 -18 28 -15 28 9 0 12 8 23 20 26
27 7 25 15 -10 35 -28 16 -30 16 -40 -2z"/>
<path d="M343 182 c-14 -2 -23 -10 -23 -22 0 -22 22 -39 28 -22 2 7 8 10 13 6
12 -7 24 25 13 35 -5 4 -19 5 -31 3z"/>
<path d="M821 126 c0 -13 3 -16 6 -7 5 11 7 11 14 0 7 -11 9 -9 9 7 0 12 -6
21 -15 21 -9 0 -15 -9 -14 -21z"/>
<path d="M584 126 c-4 -11 -12 -13 -29 -6 -29 11 -36 3 -24 -27 13 -35 42 -29
55 12 11 34 9 50 -2 21z"/>
<path d="M727 67 c21 -12 21 -14 8 -40 l-14 -27 42 1 c64 2 122 18 109 31 -6
6 -26 12 -44 14 -18 1 -50 9 -70 18 -44 19 -63 21 -31 3z"/>
<path d="M500 35 c-8 -9 -8 -15 -2 -15 12 0 26 19 19 26 -2 2 -10 -2 -17 -11z"/>
<path d="M458 13 c7 -3 16 -2 19 1 4 3 -2 6 -13 5 -11 0 -14 -3 -6 -6z"/>
</g>
</svg>
